<svg width="25" height="40" viewBox="0 0 25 40" fill="none" xmlns="http://www.w3.org/2000/svg">
<g clip-path="url(#clip0_4376_16963)">
<path d="M24.863 13.2032C24.6156 13.6506 24.3592 14.0932 24.1001 14.5331C23.4199 15.6879 22.7349 16.8394 22.0546 17.9936C20.9927 19.7926 19.9307 21.5923 18.8728 23.3941C17.6654 25.4512 16.4635 27.511 15.2581 29.5688C13.8226 32.0188 12.3871 34.4681 10.9481 36.9161C10.4416 37.7775 9.9268 38.6348 9.41062 39.4907C9.34721 39.5949 9.24935 39.6793 9.16734 39.7726H8.82345C8.56226 39.6085 8.52298 39.3783 8.58018 39.093C8.6677 38.6552 8.75591 38.2167 8.84344 37.7788C9.22592 35.8627 9.60634 33.9458 9.98193 32.0283C10.4719 29.5279 10.9516 27.0248 11.4388 24.5237C11.6924 23.2232 11.9543 21.9246 12.2079 20.624C12.2706 20.3033 12.21 20.2481 11.8716 20.2849C9.4816 20.545 7.09297 20.8092 4.70227 21.0639C3.50795 21.1912 2.31088 21.3022 1.1145 21.4173C1.05454 21.4228 0.994583 21.4268 0.935315 21.4275C0.605896 21.4337 0.302665 21.3526 0.123483 21.0299C-0.0915348 20.6445 -0.010903 20.2672 0.257181 19.9199C1.45425 18.3735 2.65201 16.8285 3.8422 15.2766C4.85182 13.9604 5.84834 12.6333 6.85727 11.3156C8.05297 9.75426 9.25762 8.19969 10.454 6.63831C11.6366 5.09463 12.8123 3.54618 13.9935 2.00182C14.4353 1.42371 14.8812 0.848317 15.3298 0.27497C15.4849 0.0774988 15.6765 -0.0838828 15.9466 0.0468567C16.2119 0.175553 16.2051 0.416604 16.1568 0.666507C16.0776 1.07779 15.9983 1.4884 15.9191 1.89968C15.4484 4.33607 14.9797 6.77245 14.5118 9.20952C14.2768 10.4332 14.048 11.6582 13.8199 12.8832C13.7565 13.2257 13.8033 13.2692 14.1431 13.2236C17.2188 12.811 20.2952 12.399 23.3709 11.987C23.4991 11.97 23.628 11.9578 23.7569 11.9442C23.8217 11.9367 23.8864 11.9299 23.9512 11.9217C24.2882 11.8801 24.6045 11.9292 24.8189 12.2104C25.0573 12.5216 25.0484 12.8682 24.863 13.2032Z" fill="#924FDC"/>
<path d="M24.8629 13.2033C24.6154 13.6507 24.3591 14.0933 24.1 14.5332C23.4197 15.688 22.7347 16.8395 22.0545 17.9937C20.9925 19.7927 19.9305 21.5924 18.8727 23.3942C17.6653 25.4513 16.4634 27.5111 15.258 29.5689C13.8225 32.0189 12.387 34.4682 10.948 36.9162C10.4415 37.7776 9.92667 38.6349 9.41049 39.4908C9.34708 39.595 9.24922 39.6794 9.16721 39.7727H8.82332C8.56213 39.6086 8.52285 39.3785 8.58005 39.0931C8.66757 38.6553 8.75578 38.2168 8.84331 37.7789L23.7567 11.9443C23.8215 11.9368 23.8863 11.93 23.9511 11.9218C24.2881 11.8803 24.6044 11.9293 24.8187 12.2105C25.0572 12.5217 25.0482 12.8683 24.8629 13.2033Z" fill="#6C3BA3"/>
<path d="M16.1568 0.666507C16.0776 1.07779 15.9983 1.4884 15.919 1.89968L0.935315 21.4275C0.605896 21.4337 0.302665 21.3526 0.123483 21.0299C-0.0915348 20.6445 -0.010903 20.2672 0.257181 19.9199C1.45425 18.3735 2.65201 16.8285 3.8422 15.2766C4.85182 13.9604 5.84834 12.6333 6.85727 11.3156C8.05297 9.75426 9.25762 8.19969 10.454 6.63831C11.6366 5.09463 12.8123 3.54618 13.9935 2.00182C14.4353 1.42371 14.8812 0.848317 15.3298 0.27497C15.4849 0.0774988 15.6765 -0.0838828 15.9466 0.0468567C16.2119 0.175553 16.2051 0.416604 16.1568 0.666507Z" fill="white" fill-opacity="0.2"/>
</g>
<defs>
<clipPath id="clip0_4376_16963">
<rect width="25" height="39.7727" fill="white"/>
</clipPath>
</defs>
</svg>
